#format: frame checksums
#version: 1
#hash: MD5
#tb 0: 1001/30000
#stream#, dts,        pts, duration,     size, hash
0,          0,          0,        1,    67122, b97087eb8c53cf56dc44576912654fb2
0,          1,          1,        1,    67122, 219bb68a59dc166806a5b5689a943b66
0,          2,          2,        1,    67122, 67b2ec19dd3b74d828b51912c25249d6
0,          3,          3,        1,    67122, 73dd9625538e10a0f94d31ac9fe3db23
0,          4,          4,        1,    67122, 51e68f201130da18beb0cb27adcf6fa9
0,          5,          5,        1,    67122, 455d9753b3c0ac5ad7d9da022f69acd0
0,          6,          6,        1,    67122, 60a8905a63db4cdd2560583fb6415030
0,          7,          7,        1,    67122, 48c156f4b2c9f936487b43713a4573fd
0,          8,          8,        1,    67122, a5c8f4190cb34b3ecd42ca8e09bf1646
0,          9,          9,        1,    67122, 233a5d5187137e047993532fc2e725d3
